<?xml version="1.0" standalone="no"?>
<!DOCTYPE svg PUBLIC "-//W3C//DTD SVG 20010904//EN"
 "http://www.w3.org/TR/2001/REC-SVG-20010904/DTD/svg10.dtd">
<svg version="1.0" xmlns="http://www.w3.org/2000/svg"
 width="443.960897pt" height="396.014409pt" viewBox="0 0 443.960897 396.014409"
 preserveAspectRatio="xMidYMid meet">
<metadata>
Created by potrace 1.12, written by Peter Selinger 2001-2015
</metadata>
<g transform="translate(-18.870187,474.892023) scale(0.100000,-0.100000)"
fill="#000000" stroke="none">
<path d="M2150 4731 c0 -17 6 -21 31 -21 24 0 30 4 27 18 -2 10 -14 18 -31 20
-22 3 -27 -1 -27 -17z"/>
<path d="M3475 4653 c-16 -2 -34 -8 -38 -13 -5 -4 13 -4 39 1 30 6 69 5 103
-1 30 -5 56 -8 58 -6 11 11 -118 26 -162 19z"/>
<path d="M2339 4619 c-43 -43 3 -139 67 -139 31 0 31 -14 -1 -45 -29 -30 -54
-31 -88 -5 -34 27 -43 78 -25 135 9 25 14 45 12 45 -9 0 -34 -62 -44 -106 -12
-54 -34 -84 -61 -84 -23 0 -28 21 -31 120 l-3 75 -13 -60 c-25 -116 -34 -144
-58 -166 -54 -51 -134 -8 -148 79 -8 51 13 107 44 117 28 9 34 2 20 -25 -18
-33 -4 -72 23 -68 49 7 28 108 -23 108 -50 0 -90 -63 -90 -144 0 -69 -14 -106
-39 -106 -19 0 -41 43 -41 81 0 11 -5 19 -11 19 -15 0 -1 -80 19 -102 25 -29
51 -22 68 18 l15 35 30 -25 c60 -51 144 -25 170 52 7 22 14 31 17 22 7 -23 34
-50 50 -50 7 0 27 14 43 31 16 17 29 26 29 20 0 -24 49 -61 80 -61 34 0 90 46
90 74 0 9 6 16 13 16 19 0 51 37 76 88 45 88 65 35 37 -95 -7 -35 -10 -63 -6
-63 5 0 22 30 40 67 36 78 56 103 82 103 21 0 22 -14 7 -76 -21 -82 24 -123
78 -72 l23 21 0 -22 c0 -30 43 -71 75 -71 44 0 83 28 126 91 22 34 45 57 49
52 21 -22 31 -84 20 -118 -12 -36 -44 -55 -63 -36 -14 14 -30 14 -22 0 19 -29
100 -35 103 -7 1 7 5 29 8 49 4 25 -1 51 -16 88 -19 43 -21 56 -11 77 15 33
14 44 -4 44 -8 0 -17 -12 -20 -27 -3 -16 -13 -41 -22 -58 -9 -16 -22 -42 -30
-57 -18 -36 -79 -88 -102 -88 -29 0 -60 32 -67 68 -6 32 -6 33 20 26 32 -8 83
12 96 37 19 34 12 69 -16 81 -43 20 -88 -12 -123 -87 -32 -66 -55 -85 -79 -61
-12 12 -12 22 -2 64 6 28 9 60 5 71 -10 33 -48 26 -83 -14 l-31 -34 -3 47 c-3
43 -5 47 -28 47 -19 0 -31 -10 -50 -46 -28 -52 -49 -79 -60 -79 -4 0 -10 21
-13 46 -9 85 -64 127 -108 83z m77 -14 c9 -14 19 -45 22 -70 5 -44 4 -45 -26
-45 -41 0 -71 28 -78 71 -10 63 49 94 82 44z m-366 -71 c0 -24 -5 -34 -15 -34
-22 0 -30 27 -16 56 15 33 31 22 31 -22z m868 34 c42 -42 -30 -116 -91 -92
-21 8 -3 58 30 84 30 23 44 25 61 8z"/>
<path d="M3701 4601 c137 -73 167 -196 70 -284 -47 -42 -105 -62 -155 -53 -27
5 -36 12 -36 26 0 11 -16 37 -35 58 l-34 39 35 54 c20 30 50 69 67 87 17 17
26 32 20 32 -19 0 -109 -94 -143 -149 -18 -28 -36 -49 -41 -45 -5 3 -6 10 -3
16 4 7 2 8 -4 4 -8 -5 -8 -13 0 -30 8 -20 5 -35 -16 -82 -36 -78 -52 -94 -94
-94 -27 0 -43 9 -73 39 -43 42 -48 43 -23 5 21 -31 64 -54 103 -54 37 0 91 45
123 101 12 22 24 38 27 36 4 -1 23 -11 44 -22 44 -22 46 -36 17 -145 -11 -41
-20 -99 -20 -128 0 -48 4 -58 34 -88 32 -32 38 -34 97 -33 60 1 62 2 21 8 -97
16 -130 77 -112 206 23 168 15 152 63 145 94 -13 178 24 211 93 20 43 21 109
2 145 -27 51 -117 121 -176 136 -14 4 0 -7 31 -23z m-148 -279 c24 -41 18 -48
-21 -28 -37 19 -44 29 -36 51 10 24 36 14 57 -23z"/>
<path d="M1727 4510 c-35 -27 -47 -71 -45 -158 1 -59 -3 -78 -19 -100 -26 -34
-62 -39 -96 -12 -29 23 -35 40 -14 40 20 0 60 46 54 62 -4 9 -6 7 -6 -4 -1
-22 -46 -52 -66 -44 -22 8 -20 88 3 109 25 23 38 21 56 -5 9 -12 16 -17 16
-11 0 16 -28 43 -45 43 -7 0 -23 -9 -36 -19 -22 -18 -24 -26 -24 -120 0 -79
-3 -104 -15 -111 -41 -27 -83 14 -105 101 -7 30 -13 45 -14 35 -1 -11 -9 -28
-18 -39 -17 -18 -17 -19 0 -16 14 3 22 -6 32 -34 18 -52 43 -77 75 -77 34 0
60 28 60 64 l0 27 26 -20 c31 -25 55 -26 93 -7 29 15 51 53 51 87 0 20 0 20
26 0 15 -12 34 -21 44 -21 24 0 70 38 70 58 0 12 -4 9 -13 -8 -8 -16 -23 -26
-39 -28 -60 -7 -94 132 -47 192 41 52 95 15 65 -45 -8 -16 -10 -27 -5 -23 23
14 30 56 14 80 -19 29 -44 30 -78 4z"/>
<path d="M3136 4393 c-31 -34 -40 -50 -25 -40 22 15 51 48 73 85 14 24 1 11
-48 -45z"/>
<path d="M990 4400 c-6 -11 -17 -20 -25 -20 -24 0 -87 -62 -106 -105 -30 -65
-26 -166 10 -242 75 -158 221 -215 348 -137 70 43 107 108 109 193 l3 66 -8
-61 c-4 -34 -17 -77 -27 -95 -28 -47 -94 -95 -143 -103 -164 -26 -324 176
-281 354 12 49 64 120 88 120 6 0 8 -24 5 -62 -4 -55 -2 -68 19 -98 19 -28 31
-36 60 -38 106 -9 104 152 -3 196 -29 13 -38 22 -35 35 6 23 -1 22 -14 -3z
m58 -44 c34 -18 62 -66 62 -105 0 -38 -23 -71 -50 -71 -36 0 -80 72 -80 130 0
59 20 73 68 46z"/>
<path d="M1270 4314 c0 -10 10 -28 21 -40 12 -13 25 -38 29 -56 l8 -33 1 35
c1 38 -26 101 -46 108 -7 2 -13 -4 -13 -14z"/>
<path d="M3820 4137 c-45 -24 -80 -74 -80 -115 0 -30 52 -82 82 -82 13 1 34 7
47 14 13 7 33 11 45 9 16 -4 18 -2 7 5 -12 8 -10 16 12 42 47 56 49 105 5 129
-25 14 -29 14 -55 -5 -41 -31 -52 -83 -25 -127 24 -41 20 -47 -23 -47 -62 0
-90 72 -49 128 11 15 40 37 64 50 24 12 37 22 29 22 -9 0 -35 -10 -59 -23z
m124 -13 c24 -24 19 -57 -15 -104 l-32 -44 -23 28 c-28 31 -30 56 -9 96 21 41
53 51 79 24z"/>
<path d="M3985 3979 c-28 -13 -34 -19 -19 -19 11 0 29 7 40 15 21 16 60 20 68
6 9 -14 -29 -55 -88 -96 -31 -21 -53 -42 -50 -47 3 -5 18 -1 32 8 97 63 192
94 192 61 0 -16 -51 -65 -103 -100 -56 -36 -28 -43 30 -7 27 17 66 33 86 37
57 9 48 -22 -25 -89 -54 -48 -61 -59 -52 -75 8 -13 23 -18 56 -18 44 0 44 0
34 -27 -22 -58 63 -90 139 -52 17 8 22 12 13 10 -47 -13 -90 -18 -113 -12 -55
14 -12 75 79 112 25 11 46 22 46 26 0 8 -82 -14 -132 -36 -43 -18 -94 -21
-104 -5 -3 6 20 36 55 68 33 31 61 60 61 65 0 25 -23 46 -51 46 -26 0 -29 2
-19 19 25 47 -4 77 -58 62 -30 -9 -30 -8 -20 14 25 54 -21 71 -97 34z"/>
<path d="M830 3827 c0 -3 11 -29 25 -59 14 -29 25 -64 24 -78 l0 -25 -9 23
c-12 30 -67 52 -128 52 -36 0 -54 5 -67 20 -21 24 -35 26 -35 6 0 -8 12 -24
28 -34 40 -29 94 -124 90 -159 -6 -51 -41 -43 -108 27 -65 65 -77 67 -31 3 37
-51 78 -83 105 -83 54 0 60 58 16 139 -17 30 -30 56 -30 59 0 2 23 2 50 0 83
-8 128 -67 78 -102 -18 -13 -19 -16 -6 -16 24 0 58 48 58 81 0 32 -36 136 -51
144 -5 4 -9 4 -9 2z"/>
<path d="M4437 3783 c-11 -10 -8 -20 9 -37 20 -20 30 -20 38 0 11 28 -27 57
-47 37z"/>
<path d="M490 3755 c-15 -17 -5 -35 20 -35 16 0 30 18 30 41 0 14 -36 10 -50
-6z"/>
<path d="M330 3583 c170 -154 239 -236 226 -270 -11 -27 -71 -8 -218 71 -77
42 -144 76 -149 76 -5 0 48 -51 118 -114 125 -111 210 -202 261 -278 34 -52
49 -48 20 4 -24 45 -146 172 -263 276 l-70 62 104 -66 c129 -82 165 -98 191
-84 58 31 23 106 -111 234 -55 53 -97 96 -95 96 3 0 49 -32 103 -71 142 -103
184 -123 263 -124 52 0 71 4 98 23 40 29 42 48 2 27 -85 -44 -210 0 -471 167
-42 26 -80 48 -85 48 -5 0 29 -35 76 -77z"/>
<path d="M4380 3593 c14 -2 31 -6 39 -9 24 -8 -15 -40 -95 -76 -41 -18 -74
-36 -74 -40 0 -10 -2 -10 100 12 59 12 74 18 50 19 l-35 1 33 20 c18 11 35 27
38 35 9 24 -15 45 -50 44 -26 -2 -27 -2 -6 -6z"/>
<path d="M4455 3477 c25 -19 14 -31 -50 -61 -31 -14 -58 -33 -62 -42 -7 -19 7
-46 28 -53 12 -4 12 -2 0 12 -20 25 -8 42 53 70 39 18 56 32 56 44 0 21 -18
43 -34 43 -5 0 -2 -6 9 -13z"/>
<path d="M945 3328 c-79 -160 -139 -338 -165 -494 -23 -136 -24 -157 -8 -152
8 3 18 42 25 93 28 190 94 393 189 574 30 58 54 106 54 108 0 2 -7 3 -15 3 -9
0 -40 -51 -80 -132z"/>
<path d="M4147 3429 c115 -193 194 -415 229 -638 11 -70 21 -110 28 -108 23 8
-14 218 -71 396 -45 141 -160 374 -187 380 -18 3 -18 2 1 -30z"/>
<path d="M4435 3325 c-27 -7 -42 -14 -32 -14 17 -1 17 -2 3 -17 -36 -36 -5
-114 46 -114 17 0 19 -3 10 -12 -19 -19 -14 -56 8 -68 11 -6 48 -9 83 -7 l62
3 -66 2 c-103 3 -119 46 -28 74 54 16 49 28 -10 21 -62 -7 -98 2 -106 26 -9
29 5 50 46 71 74 38 169 18 169 -35 0 -31 -42 -45 -74 -25 -19 12 -20 12 -7
-4 18 -21 70 -18 84 5 5 9 7 28 3 42 -12 51 -103 76 -191 52z"/>
<path d="M3844 3093 c-70 -97 -237 -263 -324 -324 -121 -85 -159 -103 -235
-110 -67 -7 -73 -5 -146 31 -42 20 -87 45 -100 54 -29 20 -39 20 -39 2 0 -8
23 -21 52 -31 29 -9 69 -26 88 -36 l35 -20 -47 5 c-27 3 -60 8 -75 11 -27 5
-27 5 -5 -5 34 -15 194 -31 233 -24 94 18 -100 -70 -254 -115 l-78 -23 -52 26
c-29 15 -97 68 -152 117 -55 50 -119 104 -142 120 -50 35 -141 79 -163 79 -8
0 11 -11 43 -24 80 -33 122 -63 236 -164 53 -48 110 -97 126 -109 l30 -21 -35
-10 c-30 -9 -31 -10 -10 -11 24 -1 65 -20 45 -21 -5 0 -64 -9 -130 -20 -66
-11 -149 -20 -185 -20 -36 0 -83 -5 -105 -10 -22 -5 -139 -11 -260 -15 -121
-3 -269 -9 -330 -13 -79 -5 -128 -4 -175 6 -117 24 -257 -6 -369 -79 -59 -39
-226 -198 -216 -207 2 -2 39 14 83 36 52 26 126 51 213 71 73 18 140 37 148
42 14 9 14 10 -2 5 -9 -3 -76 -19 -148 -36 -72 -16 -156 -41 -187 -55 -30 -14
-57 -24 -59 -22 -7 8 122 121 181 159 85 55 168 78 280 78 62 0 86 -3 76 -10
-11 -7 -6 -10 20 -10 33 0 29 -4 -55 -50 -120 -66 -102 -64 29 4 l104 53 159
7 c87 3 203 9 258 12 l100 6 -35 -31 c-50 -43 -105 -68 -212 -97 -59 -15 -148
-52 -244 -99 -122 -60 -165 -88 -220 -139 -38 -35 -67 -66 -64 -69 3 -3 50 15
105 40 55 24 161 62 235 84 74 23 157 53 184 67 27 15 90 69 140 120 50 51
102 99 116 107 15 8 94 18 195 25 94 6 199 15 235 20 36 5 74 10 85 9 23 0
-107 -63 -168 -81 -28 -9 -35 -14 -22 -18 12 -4 2 -13 -39 -34 -31 -16 -56
-32 -56 -37 0 -17 20 -9 67 28 63 48 291 159 345 167 67 11 268 80 348 121 40
20 75 34 78 31 9 -9 -47 -63 -99 -97 -26 -16 -98 -48 -160 -71 -145 -52 -167
-67 -264 -173 -44 -49 -98 -101 -119 -117 -21 -15 -36 -28 -32 -28 23 0 157
67 251 125 59 36 158 90 219 119 128 60 162 93 212 201 31 66 38 73 116 125
161 105 473 450 408 450 -5 0 -35 -35 -66 -77z m-501 -530 c-5 -12 -3 -14 7
-8 23 14 -23 -56 -55 -83 -16 -14 -81 -49 -143 -79 -62 -29 -144 -73 -183 -98
-67 -43 -142 -85 -154 -85 -8 0 52 51 94 80 19 13 104 58 190 101 99 49 172
92 201 118 l45 42 -55 -42 c-30 -23 -116 -71 -190 -107 -74 -35 -163 -84 -198
-108 -35 -24 -65 -44 -68 -44 -3 0 19 28 50 63 63 72 111 101 249 150 100 36
174 74 197 101 16 21 21 20 13 -1z m-1182 -266 c-6 -8 -8 -16 -5 -20 7 -7 -89
-79 -142 -106 -23 -11 -91 -34 -150 -51 -60 -16 -133 -39 -163 -50 -29 -12
-56 -19 -59 -16 -2 3 -18 -4 -34 -15 -16 -12 -31 -19 -34 -16 -3 2 24 26 58
52 87 65 310 173 426 206 114 33 118 33 103 16z"/>
<path d="M1697 2098 c-31 -17 -56 -33 -54 -34 2 -2 32 12 68 31 35 19 60 35
54 35 -5 -1 -36 -15 -68 -32z"/>
<path d="M1720 3062 c0 -6 16 -30 35 -54 19 -24 73 -101 121 -173 89 -134 134
-189 169 -207 11 -6 1 6 -21 26 -41 35 -150 193 -141 202 2 3 27 -23 55 -58
27 -35 81 -93 120 -130 38 -37 65 -69 60 -70 -6 -2 18 -16 53 -31 l64 -27 -27
24 c-14 14 -48 67 -75 118 -61 117 -154 213 -273 282 -47 28 -97 63 -112 79
-16 16 -28 24 -28 19z m279 -222 c65 -64 97 -105 128 -165 37 -71 40 -81 23
-81 -10 0 -18 3 -17 6 1 4 -24 30 -56 60 -48 44 -232 261 -260 307 -23 38 108
-53 182 -127z m-121 25 c-3 -3 -13 7 -23 22 l-17 28 23 -22 c12 -12 20 -25 17
-28z"/>
<path d="M2180 2925 c42 -43 99 -87 160 -123 52 -30 142 -93 200 -139 105 -84
179 -127 235 -138 17 -3 7 3 -21 14 -67 25 -121 60 -223 143 -46 38 -119 89
-163 115 -43 25 -77 47 -74 50 9 9 108 -49 262 -152 155 -105 225 -146 274
-160 14 -3 -9 11 -50 32 -41 21 -142 84 -225 140 -82 55 -178 115 -212 132
-62 31 -92 40 -63 20 12 -8 12 -10 1 -7 -8 2 -15 12 -17 22 -2 12 2 16 12 12
33 -13 137 -37 141 -33 2 3 -20 10 -49 17 -88 21 -156 50 -206 87 -45 34 -44
32 18 -32z"/>
<path d="M2860 2741 c0 -8 121 -53 127 -47 2 2 -14 11 -36 19 -21 9 -42 21
-46 27 -7 12 -45 14 -45 1z"/>
<path d="M1780 2665 c0 -8 79 -115 85 -115 2 0 -12 23 -31 51 -19 28 -34 55
-34 60 0 5 -4 9 -10 9 -5 0 -10 -2 -10 -5z"/>
<path d="M771 2564 c-12 -15 -21 -34 -21 -44 0 -34 39 -70 75 -70 36 0 75 36
75 70 0 34 -39 70 -75 70 -24 0 -39 -7 -54 -26z"/>
<path d="M4301 2564 c-12 -15 -21 -34 -21 -44 0 -34 39 -70 75 -70 36 0 75 36
75 70 0 34 -39 70 -75 70 -24 0 -39 -7 -54 -26z"/>
<path d="M1780 2540 c0 -13 28 -25 38 -16 3 4 0 11 -8 16 -20 13 -30 12 -30 0z"/>
<path d="M2240 2535 c0 -7 81 -47 86 -43 2 3 -17 14 -41 26 -25 12 -45 20 -45
17z"/>
<path d="M1830 2515 c0 -9 139 -72 175 -80 l30 -7 -30 17 c-16 9 -41 19 -54
21 -13 3 -45 16 -72 30 -27 13 -49 22 -49 19z"/>
<path d="M1600 2380 c-20 -6 -21 -8 -5 -8 11 0 34 4 50 8 27 7 27 8 5 8 -14 0
-36 -4 -50 -8z"/>
<path d="M764 2313 c42 -293 177 -607 365 -851 125 -161 330 -352 379 -352 20
0 16 6 -30 42 -287 225 -497 520 -611 858 -34 100 -77 284 -77 329 0 13 -6 21
-16 21 -14 0 -15 -8 -10 -47z"/>
<path d="M4386 2338 c-57 -314 -140 -527 -291 -753 -114 -171 -227 -292 -425
-454 l-25 -20 23 -1 c32 0 220 166 318 283 45 53 105 132 134 175 73 109 175
319 215 442 33 103 75 287 75 329 0 28 -19 27 -24 -1z"/>
<path d="M2343 2337 c-13 -21 16 -29 64 -18 26 6 73 15 103 19 47 7 38 8 -53
7 -60 0 -111 -4 -114 -8z"/>
<path d="M1796 1074 c-36 -75 -50 -127 -19 -69 8 17 16 31 18 32 1 2 20 -5 43
-13 38 -16 43 -16 67 0 21 14 26 24 23 49 -2 25 -11 36 -43 54 -22 13 -43 23
-46 23 -4 0 -23 -34 -43 -76z m92 36 c37 -23 40 -42 12 -70 -16 -16 -24 -18
-50 -8 -40 13 -45 28 -25 67 18 37 20 37 63 11z"/>
<path d="M3290 1030 c0 -60 4 -100 10 -100 6 0 10 15 10 33 0 28 5 36 36 51
36 17 37 16 60 -5 13 -12 26 -20 29 -17 6 6 -105 116 -131 131 -12 7 -14 -9
-14 -93z m80 9 c0 -6 -53 -29 -66 -29 -2 0 -4 23 -4 52 l0 52 35 -34 c19 -19
35 -37 35 -41z"/>
<path d="M3170 1077 c0 -2 11 -36 24 -75 14 -40 23 -72 20 -72 -3 0 -41 23
-85 51 -44 28 -82 50 -84 47 -6 -6 48 -168 56 -168 4 0 -2 30 -13 66 -11 36
-18 67 -16 69 2 2 39 -19 81 -47 43 -27 80 -48 83 -45 7 7 -48 177 -58 177 -4
0 -8 -1 -8 -3z"/>
<path d="M1982 1053 c-7 -3 -19 -18 -27 -33 -51 -100 49 -188 126 -111 57 57
26 152 -49 150 -20 0 -43 -3 -50 -6z m101 -35 c16 -22 18 -33 11 -59 -13 -46
-56 -76 -91 -63 -56 19 -68 89 -22 135 28 28 76 22 102 -13z"/>
<path d="M2176 1008 c-6 -16 -36 -155 -36 -163 0 -3 5 -3 10 0 6 3 10 17 10
31 0 20 5 24 30 24 27 0 33 -6 50 -45 23 -55 34 -60 16 -7 -13 35 -12 38 10
55 32 24 32 71 2 91 -35 22 -87 30 -92 14z m100 -45 c10 -38 -21 -64 -66 -54
-36 8 -39 17 -25 77 4 20 8 21 45 12 30 -8 42 -17 46 -35z"/>
<path d="M2915 988 c-19 -85 -35 -172 -30 -176 5 -5 12 12 17 43 2 14 15 22
47 28 45 9 46 9 71 -33 4 -8 11 -12 14 -9 5 5 -100 169 -109 169 -3 0 -7 -10
-10 -22z m43 -44 c26 -40 19 -54 -27 -54 -21 0 -23 3 -17 31 3 17 6 38 6 45 0
24 14 15 38 -22z"/>
<path d="M2369 967 c-61 -46 -44 -156 25 -169 25 -5 93 18 83 28 -3 3 -14 1
-25 -5 -70 -37 -135 35 -98 107 24 47 72 56 106 22 15 -15 20 -16 20 -5 0 31
-78 47 -111 22z"/>
<path d="M2540 880 l0 -90 63 2 62 2 -57 3 -58 4 0 39 0 39 48 4 47 3 -47 2
c-48 2 -48 2 -48 37 l0 34 58 4 57 3 -62 2 -63 2 0 -90z"/>
<path d="M2704 948 c3 -13 8 -54 11 -91 l7 -68 56 7 c75 9 82 17 12 13 l-55
-3 -9 82 c-5 45 -13 82 -18 82 -4 0 -6 -10 -4 -22z"/>
</g>
</svg>
